<?xml version="1.0" encoding="UTF-8" standalone="no"?>
<svg xmlns="http://www.w3.org/2000/svg" id="fs-mkdir" version="1.1" viewBox="0 0 10.583333 15.875" width="40" height="60">
  <path id="folder" style="fill:#ffffff;fill-opacity:1;stroke:none" d="m 2.33422,4.18297 c -0.21819,0 -0.39626,0.17807 -0.39626,0.39626 v 0.04312 c 0,0.10435 -0.11372,0.3741 -0.26339,0.37411 -0.20024,0.00546 -0.36246,0.17137 -0.36246,0.37295 l 0.00116,1.17945 H 0.51144 c 0,0 -0.35503,-0.01827 -0.2296,0.40325 L 1.12797,11.29694 c 0,0.21818 0.15359,0.39509 0.37178,0.39509 h 8.90063 c 0.21713,0 0.18065,-0.39509 0.18065,-0.39509 l 0.0023,-5.9287 c 0,-0.2066 -0.16635,-0.37295 -0.37295,-0.37295 H 5.49845 C 5.35193,4.99108 5.23855,4.72459 5.23855,4.62235 v -0.04312 c 0,-0.21819 -0.17912,-0.39626 -0.39626,-0.39626 z M 1.77014,5.826267 H 10.12416 V 7.10944 L 10.12066,11.47176 9.2792,6.79477 C 9.20753,6.53758 8.91675,6.55585 8.91675,6.55585 H 1.77014 Z"/>
</svg>
