<?xml version="1.0" encoding="UTF-8" standalone="no"?>
<svg
   width="40.292999mm"
   height="8.1370001mm"
   viewBox="0 0 40.292998 8.1370005"
   version="1.1"
   id="svg1284"
   xmlns="http://www.w3.org/2000/svg"
   xmlns:svg="http://www.w3.org/2000/svg"
   xmlns:rdf="http://www.w3.org/1999/02/22-rdf-syntax-ns#"
   xmlns:cc="http://creativecommons.org/ns#"
   xmlns:dc="http://purl.org/dc/elements/1.1/">
  <defs
     id="defs1278" />
  <metadata
     id="metadata1281">
    <rdf:RDF>
      <cc:Work
         rdf:about="">
        <dc:format>image/svg+xml</dc:format>
        <dc:type
           rdf:resource="http://purl.org/dc/dcmitype/StillImage" />
      </cc:Work>
    </rdf:RDF>
  </metadata>
  <path
     id="rect892"
     style="display:inline;fill:#cfbaab;fill-opacity:1;stroke:#999999;stroke-width:0.119494;stroke-linejoin:round;stroke-miterlimit:4;stroke-dasharray:none;stroke-opacity:1;stop-color:#000000"
     d="M 2.6971384,0.11949466 H 9.4099668 V 8.0175086 H 2.6971384 c -0.6445673,0 -1.1634788,-0.5189107 -1.1634788,-1.1634761 V 1.2829668 c 0,-0.64456155 0.5189115,-1.16347214 1.1634788,-1.16347214 z" />
  <path
     id="rect984"
     style="display:inline;fill:#dac4b4;fill-opacity:1;stroke:#c4b0a2;stroke-width:0.119494;stroke-linejoin:round;stroke-miterlimit:4;stroke-dasharray:none;stroke-opacity:1;stop-color:#000000"
     d="M 9.3929219,0.11949466 H 37.591512 c 0.64457,0 1.163482,0.51891059 1.163482,1.16347214 v 5.5710657 c 0,0.6445654 -0.518912,1.1634761 -1.163482,1.1634761 H 9.3929219 Z" />
  <path
     id="rect25"
     style="display:inline;fill:none;stroke:#999999;stroke-width:0.238986;stroke-linejoin:round;stop-color:#000000"
     d="M 2.6971384,0.11949319 H 37.591512 c 0.644568,0 1.16348,0.51890993 1.16348,1.16347511 v 5.5710638 c 0,0.6445653 -0.518912,1.1634752 -1.16348,1.1634752 H 2.6971384 c -0.6445683,0 -1.1634808,-0.5189099 -1.1634808,-1.1634752 V 1.2829683 c 0,-0.64456518 0.5189125,-1.16347511 1.1634808,-1.16347511 z" />
  <text
     xml:space="preserve"
     style="font-style:normal;font-weight:normal;font-size:3.65341px;line-height:1.25;font-family:sans-serif;letter-spacing:0px;word-spacing:0px;display:inline;fill:#000000;fill-opacity:1;stroke:none;stroke-width:0.105386"
     x="11.49049"
     y="5.1846976"
     id="text982"><tspan
       id="tspan980"
       x="11.49049"
       y="5.1846976"
       style="font-size:3.65341px;stroke-width:0.105386">fs list</tspan></text>
  <rect
     style="display:inline;fill:#dddddd;fill-opacity:1;stroke:#99999f;stroke-width:0.238987;stroke-linejoin:round;stroke-miterlimit:4;stroke-dasharray:none;stroke-opacity:1;stop-color:#000000"
     id="rect850"
     width="2.7392623"
     height="2.7392504"
     x="0.11949324"
     y="2.7153625"
     ry="0.91356021" />
  <rect
     style="display:inline;fill:#dddddd;fill-opacity:1;stroke:#99999f;stroke-width:0.238987;stroke-linejoin:round;stroke-miterlimit:4;stroke-dasharray:none;stroke-opacity:1;stop-color:#000000"
     id="rect872"
     width="2.7392623"
     height="2.7392504"
     x="37.434387"
     y="2.7153625"
     ry="0.91356021" />
  <g
     id="g2467"
     transform="matrix(0.52272949,0,0,0.52272949,2.8710699,-0.08066368)">
    <path
       id="file1"
       style="fill:#ffffff;fill-opacity:1;stroke:none"
       d="M 0.77413,2.06938 V 9.08689 H 1.46675 V 3.07743 H 6.03716 V 2.06938 Z" />
    <path
       id="file2"
       style="fill:#ffffff;fill-opacity:1;stroke:none"
       d="m 2.03144,3.64223 v 7.01751 H 2.72405 V 4.65072 H 7.29446 V 3.64223 Z" />
    <path
       id="file3"
       style="fill:#ffffff;fill-opacity:1;stroke:none"
       d="M 7.52855,6.78824 9.8092,9.06889 H 7.52855 Z m -2.98239,0 h 2.45608 v 2.80695 h 2.80695 v 4.21043 H 4.54616 Z" />
    <path
       id="file4"
       style="fill:#ffffff;fill-opacity:1;stroke:none"
       d="m 3.28873,5.21526 v 7.01751 H 3.98135 V 6.22375 H 8.55176 V 5.21526 Z" />
  </g>
</svg>
