<?xml version="1.0" encoding="UTF-8" standalone="no"?>
<svg
   width="40.292999mm"
   height="8.1370001mm"
   viewBox="0 0 40.292998 8.1370005"
   version="1.1"
   id="svg1284"
   xmlns="http://www.w3.org/2000/svg"
   xmlns:svg="http://www.w3.org/2000/svg"
   xmlns:rdf="http://www.w3.org/1999/02/22-rdf-syntax-ns#"
   xmlns:cc="http://creativecommons.org/ns#"
   xmlns:dc="http://purl.org/dc/elements/1.1/">
  <defs
     id="defs1278" />
  <metadata
     id="metadata1281">
    <rdf:RDF>
      <cc:Work
         rdf:about="">
        <dc:format>image/svg+xml</dc:format>
        <dc:type
           rdf:resource="http://purl.org/dc/dcmitype/StillImage" />
      </cc:Work>
    </rdf:RDF>
  </metadata>
  <path
     id="rect892"
     style="display:inline;fill:#cfbaab;fill-opacity:1;stroke:#999999;stroke-width:0.119494;stroke-linejoin:round;stroke-miterlimit:4;stroke-dasharray:none;stroke-opacity:1;stop-color:#000000"
     d="M 2.6971384,0.11949466 H 9.4099668 V 8.0175086 H 2.6971384 c -0.6445673,0 -1.1634788,-0.5189107 -1.1634788,-1.1634761 V 1.2829668 c 0,-0.64456155 0.5189115,-1.16347214 1.1634788,-1.16347214 z" />
  <path
     id="rect984"
     style="display:inline;fill:#dac4b4;fill-opacity:1;stroke:#c4b0a2;stroke-width:0.119494;stroke-linejoin:round;stroke-miterlimit:4;stroke-dasharray:none;stroke-opacity:1;stop-color:#000000"
     d="M 9.3929219,0.11949466 H 37.591512 c 0.64457,0 1.163482,0.51891059 1.163482,1.16347214 v 5.5710657 c 0,0.6445654 -0.518912,1.1634761 -1.163482,1.1634761 H 9.3929219 Z" />
  <path
     id="rect25"
     style="display:inline;fill:none;stroke:#999999;stroke-width:0.238986;stroke-linejoin:round;stop-color:#000000"
     d="M 2.6971384,0.11949319 H 37.591512 c 0.644568,0 1.16348,0.51890993 1.16348,1.16347511 v 5.5710638 c 0,0.6445653 -0.518912,1.1634752 -1.16348,1.1634752 H 2.6971384 c -0.6445683,0 -1.1634808,-0.5189099 -1.1634808,-1.1634752 V 1.2829683 c 0,-0.64456518 0.5189125,-1.16347511 1.1634808,-1.16347511 z" />
  <text
     xml:space="preserve"
     style="font-style:normal;font-weight:normal;font-size:3.65341px;line-height:1.25;font-family:sans-serif;letter-spacing:0px;word-spacing:0px;display:inline;fill:#000000;fill-opacity:1;stroke:none;stroke-width:0.105386"
     x="11.49049"
     y="5.1846976"
     id="text982"><tspan
       id="tspan980"
       x="11.49049"
       y="5.1846976"
       style="font-size:3.65341px;stroke-width:0.105386">fs mkdir</tspan></text>
  <rect
     style="display:inline;fill:#dddddd;fill-opacity:1;stroke:#99999f;stroke-width:0.238987;stroke-linejoin:round;stroke-miterlimit:4;stroke-dasharray:none;stroke-opacity:1;stop-color:#000000"
     id="rect850"
     width="2.7392623"
     height="2.7392504"
     x="0.11949324"
     y="2.7153625"
     ry="0.91356021" />
  <rect
     style="display:inline;fill:#dddddd;fill-opacity:1;stroke:#99999f;stroke-width:0.238987;stroke-linejoin:round;stroke-miterlimit:4;stroke-dasharray:none;stroke-opacity:1;stop-color:#000000"
     id="rect872"
     width="2.7392623"
     height="2.7392504"
     x="37.434387"
     y="2.7153625"
     ry="0.91356021" />
  <path
     id="folder"
     style="fill:#ffffff;fill-opacity:1;stroke:none;stroke-width:0.503434"
     d="m 4.0841082,2.1783422 c -0.1098447,0 -0.199491,0.089647 -0.199491,0.1994908 v 0.021708 c 0,0.052533 -0.057251,0.1883349 -0.1325995,0.1883399 -0.1008084,0.00275 -0.1824749,0.086273 -0.1824749,0.1877559 l 5.839e-4,0.5937756 H 3.166458 c 0,0 -0.1787343,-0.0092 -0.1155885,0.20301 l 0.4259709,2.187337 c 0,0.1098397 0.077322,0.1989019 0.1871668,0.1989019 h 4.4808827 c 0.1093109,0 0.090946,-0.1989019 0.090946,-0.1989019 l 0.00116,-2.9847112 c 0,-0.1040097 -0.083747,-0.1877559 -0.1877558,-0.1877559 H 5.6770903 C 5.603327,2.5851725 5.5462477,2.4510123 5.5462477,2.3995411 v -0.021708 c 0,-0.1098447 -0.090176,-0.1994908 -0.1994909,-0.1994908 z M 3.8001308,3.0056343 H 8.0058312 V 3.6516278 L 8.0040692,5.8477695 7.5804497,3.4932121 C 7.5443687,3.3637338 7.39798,3.3729315 7.39798,3.3729315 H 3.8001308 Z" />
</svg>
